<svg width="64" height="64" viewBox="0 0 64 64" fill="none" xmlns="http://www.w3.org/2000/svg">
<g clip-path="url(#clip0_2036_2533)">
<path d="M50 0H14C6.26801 0 0 6.26801 0 14V50C0 57.732 6.26801 64 14 64H50C57.732 64 64 57.732 64 50V14C64 6.26801 57.732 0 50 0Z" fill="#0D0D0D"/>
<path d="M38.374 41.304C38.374 40.1467 37.7333 39.0927 36.452 38.142C35.1707 37.15 33.2073 35.972 30.562 34.608C28.4127 33.492 26.6767 32.5207 25.354 31.694C24.0313 30.8673 22.8947 29.9167 21.944 28.842C21.0347 27.726 20.58 26.5273 20.58 25.246C20.58 23.758 21.2 22.1667 22.44 20.472C23.68 18.7773 25.2093 17.3513 27.028 16.194C28.8467 15.0367 30.5413 14.458 32.112 14.458C34.0133 14.458 36.204 14.706 38.684 15.202C41.2053 15.6567 43.024 16.1733 44.14 16.752V26.3H41.784C40.4613 23.7373 38.932 21.7533 37.196 20.348C35.46 18.9013 33.6827 18.178 31.864 18.178C30.5827 18.178 29.5493 18.5293 28.764 19.232C27.9787 19.8933 27.586 20.7407 27.586 21.774C27.586 23.0553 28.2473 24.2127 29.57 25.246C30.934 26.238 32.98 27.416 35.708 28.78C37.816 29.8547 39.5107 30.7847 40.792 31.57C42.0733 32.3553 43.148 33.2853 44.016 34.36C44.9253 35.3933 45.38 36.5507 45.38 37.832C45.38 39.3613 44.7187 40.9733 43.396 42.668C42.1147 44.3213 40.5233 45.7267 38.622 46.884C36.762 48.0413 35.0467 48.62 33.476 48.62C31.4507 48.62 29.0327 48.3927 26.222 47.938C23.4527 47.442 21.4687 46.9047 20.27 46.326V36.778H22.626C24.0727 39.3407 25.788 41.3453 27.772 42.792C29.756 44.1973 31.7607 44.9 33.786 44.9C35.15 44.9 36.2453 44.5487 37.072 43.846C37.94 43.1433 38.374 42.296 38.374 41.304Z" fill="white"/>
</g>
<defs>
<clipPath id="clip0_2036_2533">
<rect width="64" height="64" fill="white"/>
</clipPath>
</defs>
</svg>
